<svg id="Laag_1" data-name="Laag 1" xmlns="http://www.w3.org/2000/svg" viewBox="0 0 241.87 134.71"><defs><style>.cls-1{fill:#fff;}.cls-1,.cls-4,.cls-5{stroke:#000;}.cls-1,.cls-2,.cls-3,.cls-4,.cls-5{stroke-miterlimit:10;}.cls-2{fill:#ffb9d2;stroke:#f79ac0;stroke-width:4px;}.cls-3{stroke:#ffb9d2;}.cls-5{fill:none;}</style></defs><title>Logo</title><path id="Oog" class="cls-1" d="M442.5,527.5s39-79,122-80,118,80,118,80l-40.37,22.2a165.24,165.24,0,0,1-159.26,0Z" transform="translate(-441.55 -446.97)"/><circle id="Cornea" class="cls-2" cx="123.45" cy="56.03" r="37.5"/><circle id="Pupil" class="cls-3" cx="123.45" cy="56.03" r="17.5"/><path class="cls-4" d="M470.5,542.5l12,2.3a428.82,428.82,0,0,0,163.84-.49l9.13-1.81s-42,27-91,28S470.5,542.5,470.5,542.5Z" transform="translate(-441.55 -446.97)"/><path class="cls-4" d="M442.5,527.5l62-20.17a192.26,192.26,0,0,1,121.64.91L682.5,527.5s-36-81.88-117-80C479.5,449.5,442.5,527.5,442.5,527.5Z" transform="translate(-441.55 -446.97)"/><path class="cls-5" d="M493.5,560.5s70,35,147-5" transform="translate(-441.55 -446.97)"/><path class="cls-5" d="M505,569.22s59,29.52,124-4.22" transform="translate(-441.55 -446.97)"/></svg>